<svg id="Capa_1" data-name="Capa 1" xmlns="http://www.w3.org/2000/svg" viewBox="0 0 32 32"><defs><style>.cls-1{fill:#d69414;}.cls-2{fill:#d69413;}.cls-3{fill:#d49317;}</style></defs><path class="cls-1" d="M18.64,16.13c0,4.57,0,9.14,0,13.71,0,.85-.12,1.61-1,2a2,2,0,0,1-2.25-.52c-2.54-2.09-5.11-4.16-7.63-6.27a2.75,2.75,0,0,0-2.07-.77c-1.1.06-2.2,0-3.29,0C.82,24.23,0,23.48,0,22Q0,16.1,0,10.26C0,8.76.89,7.8,2.43,8c3.37.49,5.81-.83,8-3.12A64.47,64.47,0,0,1,15.4.69,2,2,0,0,1,17.64.16c.89.39,1,1.15,1,2C18.63,6.82,18.64,11.48,18.64,16.13ZM16.38,2.72c-.3.2-.42.26-.53.35-1.47,1.25-3.06,2.41-4.4,3.79C9.16,9.2,6.61,10.68,3.15,10c-.81-.15-1,.26-1,1,0,3.32.06,6.65,0,10,0,1.07.3,1.45,1.36,1.28a8,8,0,0,1,7.31,2.56c1.63,1.63,3.56,3,5.54,4.58Z" transform="translate(0 0)"/><path class="cls-2" d="M32,16a12.57,12.57,0,0,1-9.77,12.12c-.85.2-1.63.3-1.89-.65s.52-1.12,1.28-1.33c6.29-1.76,9.68-7.68,7.66-13.45A10.44,10.44,0,0,0,21.7,5.87c-.77-.22-1.66-.37-1.35-1.4s1.08-.81,1.91-.61A12.59,12.59,0,0,1,32,16Z" transform="translate(0 0)"/><path class="cls-3" d="M26.1,16.45A5.67,5.67,0,0,1,23,21.16a1.14,1.14,0,0,1-1.68-.25c-.49-.71,0-1.13.55-1.53,2.81-2,2.82-4.77,0-6.75-.56-.4-1-.82-.58-1.53s1.1-.59,1.77-.22A6,6,0,0,1,26.1,16.45Z" transform="translate(0 0)"/></svg>