<svg id="Capa_1" data-name="Capa 1" xmlns="http://www.w3.org/2000/svg" viewBox="0 0 32 32"><defs><style>.cls-1{fill:#cf901a;}.cls-2{fill:#d59314;}</style></defs><path class="cls-1" d="M22,2.35C21.58,4.54,20.44,5,18.66,5c-4.48-.1-9,0-13.43-.07-1.78,0-2.53.28-2.49,2.32.13,6.71.09,13.43,0,20.15,0,1.47.28,2.07,1.93,2.05q10.12-.15,20.27,0c1.66,0,2-.56,1.91-2-.11-2.46.14-4.95-.08-7.39s.9-4.35,2.72-6.62c0,5.85,0,11.17,0,16.49A2.14,2.14,0,0,1,27.07,32q-12.3,0-24.59,0A2.34,2.34,0,0,1,0,29.33Q0,17.21,0,5.1c0-1.88,1.3-2.72,3-2.73C9.3,2.32,15.55,2.35,22,2.35Z" transform="translate(0 0)"/><path class="cls-2" d="M15.49,19.91,26.93,3.31c.38-.56.78-1.11,1.15-1.68C28.82.49,29.7-.58,31.14.36s.75,2.18,0,3.28l-6.49,9.44c-2.31,3.35-4.61,6.71-6.94,10-1.47,2.09-2.3,2.18-3.95.36-1.87-2.07-3.67-4.22-5.51-6.33-.86-1-1.37-2-.11-3.06s2-.22,2.78.65C12.37,16.4,13.83,18.05,15.49,19.91Z" transform="translate(0 0)"/></svg>