<svg xmlns="http://www.w3.org/2000/svg" viewBox="0 0 26.73 27.8"><defs><style>.cls-1{fill:#f7ae3d;}</style></defs><g id="Capa_2" data-name="Capa 2"><g id="Capa_1-2" data-name="Capa 1"><path class="cls-1" d="M26.73,13.93A13.62,13.62,0,0,1,13.33,27.8,13.62,13.62,0,0,1,0,13.86,13.61,13.61,0,0,1,13.4,0,13.62,13.62,0,0,1,26.73,13.93ZM11.65,17.58v1.57c0,1.93,0,1.9,1.89,1.89.53,0,.64-.19.64-.7,0-1.88,0-3.76,0-5.64,0-.49.11-.7.6-.63.21,0,.45,0,.66,0,.85.17,1.09-.24,1.13-1.06.06-1.38.1-1.38-1.25-1.38-1.16,0-1.13,0-1.14-1.1,0-.74.25-1.07,1-1,.33,0,.67,0,1,0s.47-.11.5-.48c.17-1.95.18-1.95-1.68-1.95H14.8c-2.5,0-3.14.68-3.15,3.3a1,1,0,0,0,0,.17c.17.9-.21,1.21-1,1.05-.56-.1-.76.16-.69.72a2.08,2.08,0,0,1,0,.61c-.14.89.18,1.28,1.06,1.1.59-.11.69.21.67.74C11.62,15.73,11.65,16.66,11.65,17.58Z"/></g></g></svg>