<svg xmlns="http://www.w3.org/2000/svg" viewBox="0 0 26.73 27.8"><defs><style>.cls-1{fill:#f7ae3d;}.cls-2{fill:#f5ad3e;}</style></defs><g id="Capa_2" data-name="Capa 2"><g id="Capa_1-2" data-name="Capa 1"><path class="cls-1" d="M13.36,27.8A13.62,13.62,0,0,1,0,13.89,13.6,13.6,0,0,1,13.37,0,13.61,13.61,0,0,1,26.73,13.9,13.62,13.62,0,0,1,13.36,27.8Zm6.56-13.65h0c0-1.1.05-2.2,0-3.3a3.52,3.52,0,0,0-3.11-3.58,27.63,27.63,0,0,0-6.74,0,3.49,3.49,0,0,0-3.35,3.44,43.39,43.39,0,0,0,0,6.84,3.48,3.48,0,0,0,3.05,3.37,27.64,27.64,0,0,0,6.74.06c2.26-.22,3.35-1.63,3.44-4C20,16,19.92,15.07,19.92,14.15Z"/><path class="cls-2" d="M18.7,14.12c0,1,0,1.91,0,2.86-.08,1.67-.77,2.5-2.37,2.68a26.5,26.5,0,0,1-6.23,0,2.29,2.29,0,0,1-2.21-2.38,49,49,0,0,1,0-6.41A2.27,2.27,0,0,1,10.1,8.5a27.26,27.26,0,0,1,6.32,0A2.35,2.35,0,0,1,18.69,11c0,1,0,2.08,0,3.12ZM9.85,14a3.55,3.55,0,0,0,3.39,3.64,3.6,3.6,0,0,0,.08-7.2A3.54,3.54,0,0,0,9.85,14Zm7.83-3.73c-.12-.41-.3-.77-.82-.75a.74.74,0,0,0-.8.86.73.73,0,0,0,.83.75C17.39,11.15,17.6,10.81,17.68,10.3Z"/><path class="cls-2" d="M13.28,16.37a2.3,2.3,0,1,1,2.23-2.3A2.25,2.25,0,0,1,13.28,16.37Z"/></g></g></svg>