<svg xmlns="http://www.w3.org/2000/svg" viewBox="0 0 26.73 27.8"><defs><style>.cls-1{fill:#f7ae3d;}</style></defs><g id="Capa_2" data-name="Capa 2"><g id="Capa_1-2" data-name="Capa 1"><path class="cls-1" d="M13.37,0A13.61,13.61,0,0,1,26.73,13.91,13.62,13.62,0,0,1,13.36,27.8,13.62,13.62,0,0,1,0,13.89,13.61,13.61,0,0,1,13.37,0ZM11.6,15.34v2.95c0,1.89,0,1.86,1.83,1.88.62,0,.72-.23.71-.8,0-1.62,0-3.24,0-4.86,0-1,.44-1.52,1.3-1.52s1.17.36,1.18,1.48v3.64c0,2.13,0,2.13,2.07,2h.17c.28,0,.4-.09.39-.39,0-2.14.07-4.29-.07-6.42a3.19,3.19,0,0,0-3.9-2.7c-.45.11-.93.9-1.37,0,0,0-.22,0-.33,0-.47,0-.94,0-1.41,0s-.58.14-.57.59C11.61,12.57,11.6,14,11.6,15.34Zm-3.3,0v3c0,1.9,0,1.88,1.8,1.89.55,0,.71-.15.7-.72,0-2.31,0-4.62,0-6.93,0-2,0-2-1.94-1.94-.45,0-.56.15-.56.59C8.32,12.56,8.3,13.94,8.3,15.33Zm1.24-5.6A1.31,1.31,0,1,0,8.26,8.42,1.28,1.28,0,0,0,9.54,9.73Z"/></g></g></svg>