<svg id="Capa_1" data-name="Capa 1" xmlns="http://www.w3.org/2000/svg" viewBox="0 0 27.82 32"><defs><style>.cls-1{fill:#d6940f;}</style></defs><path class="cls-1" d="M2.1,15.92c0-4.35,0-8.7,0-13C2.11.54,2.59,0,4.83,0H27.17c2.24,0,2.73.53,2.73,2.86q0,13.15,0,26.31c0,2.14-.68,2.81-2.83,2.81Q16,32,4.94,32c-2.15,0-2.83-.67-2.84-2.81C2.08,24.76,2.1,20.34,2.1,15.92Zm25.64.33c0-4.21,0-8.43,0-12.64,0-1.16-.32-1.54-1.5-1.53Q16,2.15,5.78,2.08c-1.13,0-1.55.27-1.54,1.49q.07,12.43,0,24.86c0,1.16.33,1.53,1.5,1.52,6.83-.05,13.66-.07,20.48,0,1.37,0,1.56-.53,1.54-1.7C27.7,24.26,27.74,20.25,27.74,16.25Z" transform="translate(-2.09)"/><path class="cls-1" d="M16.07,23.82h6.14c.78,0,1.65.07,1.7,1C24,26,23,26.08,22.17,26.08q-6.14,0-12.27,0c-.83,0-1.83,0-1.8-1.15s1-1.11,1.84-1.11C12,23.81,14,23.82,16.07,23.82Z" transform="translate(-2.09)"/><path class="cls-1" d="M15.8,14.06H9.66c-.79,0-1.59-.1-1.58-1.15s.79-1.08,1.46-1.09q6.45,0,12.9,0c.67,0,1.46.17,1.48,1.08s-.77,1.16-1.56,1.16Z" transform="translate(-2.09)"/><path class="cls-1" d="M15.86,20H9.74C9,20,8.11,20,8.13,18.91c0-.91.73-1,1.47-1q6.44,0,12.87,0c.76,0,1.42.16,1.4,1.07s-.75,1-1.47,1Z" transform="translate(-2.09)"/><path class="cls-1" d="M18.86,8H15.18c-.62,0-1.12-.2-1.17-.87a1,1,0,0,1,1.13-1.16c2.53,0,5.05,0,7.58,0a1.05,1.05,0,0,1,1.16,1.15c0,.86-.69.9-1.33.89Z" transform="translate(-2.09)"/></svg>