<svg id="Capa_1" data-name="Capa 1" xmlns="http://www.w3.org/2000/svg" viewBox="0 0 29.96 32"><defs><style>.cls-1{fill:#d59317;}.cls-2{fill:#d3921a;}</style></defs><path class="cls-1" d="M1,14Q1,8.25,1,2.54C1,.74,1.76,0,3.65,0H24.06c1.87,0,2.69.75,2.61,2.55-.05,1.14.25,1.53,1.54,1.46,2-.09,2.74.69,2.74,2.55Q31,18,31,29.41C31,31.28,30.19,32,28.2,32q-10,0-20.12,0C6,32,5.2,31.31,5.29,29.36c0-1.11-.28-1.43-1.47-1.38C1.74,28.06,1,27.32,1,25.37Zm23.42.18c0-3.63,0-7.26,0-10.9,0-.86-.14-1.22-1.2-1.22-6.29,0-12.58,0-18.87,0-.83,0-1.14.15-1.13,1Q3.3,14,3.24,25c0,.86.3,1,1.13,1,6.29,0,12.58,0,18.87,0,1.06,0,1.21-.35,1.2-1.22C24.39,21.23,24.42,17.68,24.42,14.14ZM28.69,18c0-3.59,0-7.18,0-10.77,0-.72,0-1.23-1.07-1.22s-.93.6-.93,1.21V25.13c0,2.25-.65,2.87-3,2.87-5,0-10,0-15,0-.81,0-1.16.13-1.17,1s.39,1,1.17,1c6.29,0,12.58,0,18.87,0,.93,0,1.2-.24,1.19-1.11C28.66,25.24,28.69,21.61,28.69,18Z" transform="translate(-1)"/><path class="cls-2" d="M13.77,14c-2.32,0-4.64,0-6.95,0-.8,0-1.49-.15-1.52-1S6,12,6.76,12H20.94c.8,0,1.49.23,1.45,1.08s-.74,1-1.54,1C18.49,14,16.13,14,13.77,14Z" transform="translate(-1)"/><path class="cls-2" d="M13.88,18c-2.36,0-4.73,0-7.09,0C6,18,5.31,17.83,5.3,17S6,16,6.79,16H21c.81,0,1.47.26,1.42,1.1s-.65,1-1.42,1C18.61,18,16.24,18,13.88,18Z" transform="translate(-1)"/><path class="cls-2" d="M13.87,22c-2.37,0-4.73,0-7.09,0C6,22,5.3,21.81,5.3,21s.73-1,1.51-1h14c.78,0,1.52.15,1.55,1S21.66,22,20.81,22C18.5,22,16.18,22,13.87,22Z" transform="translate(-1)"/><path class="cls-2" d="M16,6c1.66,0,3.31,0,5,0,.78,0,1.38.21,1.41,1S21.76,8.07,21,8.07H11c-.78,0-1.5-.19-1.48-1.05s.71-1,1.51-1C12.71,6.05,14.37,6,16,6Z" transform="translate(-1)"/></svg>