<svg xmlns="http://www.w3.org/2000/svg" viewBox="0 0 27.6 32"><defs><style>.cls-1{fill:#dc9704;}</style></defs><g id="Capa_2" data-name="Capa 2"><g id="Capa_1-2" data-name="Capa 1"><path class="cls-1" d="M0,11.22C.08,4.66,7-.49,15.07,0c7.79.51,13.55,6.63,12.37,13-.85,4.64-3.69,8.52-6.68,12.36a49.35,49.35,0,0,1-5.54,5.88c-.74.68-1.44,1.11-2.38.21C7.36,26.29,2.39,20.85.45,14A21.6,21.6,0,0,1,0,11.22Zm13.72,7.27c4.94,0,9-3.16,9-7.13S18.81,4.08,13.93,4,5,7.17,5,11.18,8.81,18.47,13.72,18.49Z"/></g></g></svg>