<svg id="Capa_1" data-name="Capa 1" xmlns="http://www.w3.org/2000/svg" viewBox="0 0 511.34 511.34"><defs><style>.cls-1{fill:#25b8d3;}.cls-2{fill:#fff;}</style></defs><circle class="cls-1" cx="255.67" cy="255.67" r="255.67"/><ellipse class="cls-2" cx="256.05" cy="254.96" rx="187" ry="182.96"/><path class="cls-1" d="M238.07,27.41h34.82c6.27,1.8,12.82,1.7,19.19,2.8C352.05,40.6,401.25,69.42,437.9,118c41.53,55,55.31,117.22,41.66,184.69-11.27,55.69-40.29,101.1-85.64,135.33-51.87,39.16-110.54,53.53-174.65,43.5-51.71-8.09-95.52-32-131.11-70.43C56.24,376.61,36.89,336,29.83,289.47c-.79-5.21-.63-10.58-2.48-15.62V238.13c1.28-.79.81-2.11.93-3.23a267.05,267.05,0,0,1,4.16-26.83c10.33-47.14,33.12-87.24,68.53-120C135.43,56.27,176,36.94,222.47,29.89,227.67,29.09,233.05,29.35,238.07,27.41ZM257.34,103c-.93.05-3,.19-5.08.25-30.49.86-56.54,11.87-77,34.67-12,13.38-19.57,29.09-20.24,47.43-.65,17.55,16,30.7,33,26.43,9.66-2.42,14.82-9.34,18.17-18.05,2.72-7.07,5-14.32,8.57-21,5.21-9.83,11-19.19,22-23.59a56.25,56.25,0,0,1,19.63-3.62c15.23-.38,28.7,4.07,38,16.74s11.33,30-3.16,46.14c-9.86,11-21.5,20.1-32.22,30.19-8.78,8.26-17.7,16.45-23.46,27.28-8,15-11.52,30.93-7.45,47.76,2.4,10,11.52,16.31,22.3,16.56,11.94.28,19.9-4.82,23.33-15.4,1.6-4.93,2.57-10.06,3.8-15.11,1.93-7.92,5-15.3,10.81-21.18s11.64-11.5,17.6-17.11c10.18-9.58,20.93-18.61,30.61-28.67,34-35.33,22.48-84.72-10.24-109C306.11,108.63,283.16,103.07,257.34,103Zm-4.52,306.1c17,.54,30.31-12.24,30.78-29.49a29.86,29.86,0,0,0-28.83-30.71c-17.35-.63-31.44,12.21-31.88,29C222.42,395.82,234.58,408.49,252.82,409.06Z" transform="translate(0 -0.66)"/></svg>