<svg xmlns="http://www.w3.org/2000/svg" viewBox="0 0 26.73 27.8"><defs><style>.cls-1{fill:#f7ae3d;}</style></defs><g id="Capa_2" data-name="Capa 2"><g id="Capa_1-2" data-name="Capa 1"><path class="cls-1" d="M13.37,0A13.61,13.61,0,0,1,26.73,13.91,13.62,13.62,0,0,1,13.36,27.8,13.62,13.62,0,0,1,0,13.89,13.61,13.61,0,0,1,13.37,0ZM19.5,8.75c-.46.17-.89.35-1.33.47s-.86-.44-1.32-.61a2.72,2.72,0,0,0-3.71,2.51c0,.78-.23.86-.82.7l-.57-.13A8,8,0,0,1,7.52,9a3,3,0,0,0,.59,3.62c-.34.23-.59-.18-.94,0a2.86,2.86,0,0,0,1.9,2.65c-.3.19-.64-.05-.93.23a2.91,2.91,0,0,0,2.41,1.84,5.17,5.17,0,0,1-3.8,1.17,3.14,3.14,0,0,0,.36.3c4.77,2.79,11-.57,11.42-6.23a2.5,2.5,0,0,1,.91-2.07c.07,0,.08-.19.11-.27-.23-.26-.56,0-.77-.21A2.68,2.68,0,0,0,19.5,8.75Z"/></g></g></svg>